# xmcd
#
# Track frame offsets:
#	150
#	12608
#	23622
#	34161
#	46473
#	61613
#	76503
#	86864
#	100023
#	111401
#	123075
#	133939
#	146011
#	158261
#	168388
#	181473
#	193947
#	201741
#
# Disc length: 2817 seconds
#
# Revision: 0
# Processed by: cddbd v1.5.2PL0 Copyright (c) Steve Scherf et al.
# Submitted via: EasyCDDAExtractor 16.0.4.1
#
DISCID=f30aff12
DTITLE=Porter Wagoner and Dolly Parton - The Best Of
DYEAR=1900
DGENRE=Country
TTITLE0=Satisfied Mind
TTITLE1=Misery Loves Company
TTITLE2=Sorrow On The Rocks
TTITLE3=Green, Green Grass Of Home
TTITLE4=Skid Row Joe
TTITLE5=Cold Hard Facts Of Life
TTITLE6=Big Wind
TTITLE7=Carroll County Accident
TTITLE8=Eat, Drink And Be Merry
TTITLE9=What Would You Do IF Jesus Came To Your House
TTITLE10=It Wasn't God Who Made Honky Tonk Angels
TTITLE11=Makin' Believe
TTITLE12=Letter To Heaven
TTITLE13=Release Me
TTITLE14=Little Blossom
TTITLE15=Two Little Orphans
TTITLE16=Puppy Love
TTITLE17=Girl Left Alone
EXTD=
EXTT0=
EXTT1=
EXTT2=
EXTT3=
EXTT4=
EXTT5=
EXTT6=
EXTT7=
EXTT8=
EXTT9=
EXTT10=
EXTT11=
EXTT12=
EXTT13=
EXTT14=
EXTT15=
EXTT16=
EXTT17=
PLAYORDER=
